<?xml version="1.0" standalone="no"?>
<!DOCTYPE svg PUBLIC "-//W3C//DTD SVG 20010904//EN"
 "http://www.w3.org/TR/2001/REC-SVG-20010904/DTD/svg10.dtd">
<svg version="1.0" xmlns="http://www.w3.org/2000/svg"
 width="700.000000pt" height="700.000000pt" viewBox="0 0 700.000000 700.000000"
 preserveAspectRatio="xMidYMid meet">
<metadata>
Created by potrace 1.14, written by Peter Selinger 2001-2017
</metadata>
<g transform="translate(0.000000,700.000000) scale(0.100000,-0.100000)"
fill="#000000" stroke="none">
<path d="M137 6989 c-50 -8 -87 -36 -112 -85 -20 -39 -20 -60 -22 -3269 -1
-1777 3 -3263 7 -3303 22 -185 93 -271 260 -313 46 -12 557 -14 3235 -14 3035
0 3183 1 3244 18 152 43 217 126 240 303 5 39 9 1436 9 3284 1 2588 -2 3224
-12 3263 -25 90 -76 120 -211 121 -84 0 -309 -11 -360 -19 -16 -2 -61 -7 -100
-10 -72 -6 -127 -12 -180 -20 -16 -2 -70 -9 -120 -15 -49 -6 -97 -13 -105 -15
-8 -2 -33 -6 -55 -10 -22 -3 -62 -10 -90 -15 -27 -5 -97 -19 -155 -30 -107
-21 -404 -93 -540 -131 -227 -62 -642 -213 -905 -329 -145 -64 -567 -277 -620
-313 l-39 -26 -85 46 c-157 86 -354 189 -381 198 -3 1 -45 20 -93 43 -136 64
-142 67 -297 131 -528 217 -1147 383 -1701 456 -25 3 -57 7 -70 10 -13 2 -51
6 -84 10 -33 3 -78 8 -100 10 -235 24 -493 36 -558 24z"/>
</g>
</svg>
